# xmcd CD database file
#
# Track frame offsets:
#	150
#	19975
#	38722
#	55660
#	78077
#	96475
#	112527
#	134752
#	151952
#	169115
#
# Disc length: 2493 seconds
#
# Revision: 0
# Processed by: cddbd v1.5PL3 Copyright (c) Steve Scherf et al.
# Submitted via: CDex 1.50beta8
#
DISCID=7409bb0a
DTITLE=NOBODY - From A Window
DYEAR=1900
DGENRE=JPop
TTITLE0=Pleasure Syndrome
TTITLE1=Moonlight Dancer
TTITLE2=Everybody Shout
TTITLE3=Rescue Please
TTITLE4=Play The Blues
TTITLE5=Rain
TTITLE6=Another Day
TTITLE7=Faraway September
TTITLE8=It's All Over
TTITLE9=An Ordinary Morning
EXTD=
EXTT0=
EXTT1=
EXTT2=
EXTT3=
EXTT4=
EXTT5=
EXTT6=
EXTT7=
EXTT8=
EXTT9=
PLAYORDER=
